<?xml version="1.0" standalone="no"?>
<!DOCTYPE svg PUBLIC "-//W3C//DTD SVG 20010904//EN"
 "http://www.w3.org/TR/2001/REC-SVG-20010904/DTD/svg10.dtd">
<svg version="1.0" xmlns="http://www.w3.org/2000/svg"
 width="173.000000pt" height="193.000000pt" viewBox="0 0 173.000000 193.000000"
 preserveAspectRatio="xMidYMid meet">

<g transform="translate(0.000000,193.000000) scale(0.100000,-0.100000)"
fill="#038372" stroke="none">
<path d="M15 1904 c4 -10 20 -57 35 -104 15 -47 39 -108 53 -135 26 -53 280
-344 300 -346 14 -1 -93 -22 -201 -40 l-73 -12 34 -36 c19 -20 56 -73 82 -118
71 -120 154 -223 200 -247 31 -16 58 -21 120 -20 44 0 72 -1 63 -3 -29 -7
-486 -499 -513 -554 -14 -27 -32 -80 -40 -119 -8 -39 -24 -88 -35 -110 -11
-22 -18 -40 -15 -40 3 0 23 13 45 29 22 16 61 34 86 40 26 7 59 18 74 26 38
19 209 179 320 298 85 91 91 96 99 74 31 -81 55 -117 80 -123 14 -3 42 -12 61
-21 33 -14 35 -14 57 11 27 31 33 32 33 6 0 -27 22 -35 52 -19 13 7 39 15 58
18 29 5 39 13 57 51 12 25 25 53 28 64 4 15 38 -14 181 -153 179 -176 194
-188 326 -235 26 -10 63 -30 84 -47 20 -16 38 -29 39 -29 2 0 -5 22 -16 49
-10 27 -23 77 -28 110 -5 33 -18 77 -28 98 -9 21 -109 132 -222 248 -113 116
-236 242 -274 281 l-69 72 53 -15 c159 -42 326 79 386 279 8 27 30 67 50 89
l35 39 -30 0 c-31 0 -141 23 -199 41 l-32 10 130 147 c146 165 185 218 200
277 6 22 21 73 33 113 12 39 21 72 19 72 -2 0 -27 -16 -56 -35 -28 -19 -77
-43 -107 -53 -102 -35 -135 -59 -230 -164 -120 -131 -233 -248 -241 -248 -4 0
-9 22 -13 48 -8 62 -63 155 -121 205 -24 21 -47 47 -51 59 -6 20 -7 20 -28 -6
-11 -14 -37 -35 -56 -45 -48 -25 -106 -111 -134 -199 -12 -40 -26 -74 -29 -75
-4 -1 -84 79 -178 178 -94 99 -186 189 -203 201 -17 12 -67 36 -111 53 -44 18
-95 44 -114 59 -29 22 -33 23 -26 6z"/>
</g>
</svg>
