<?xml version="1.0" standalone="no"?>
<!DOCTYPE svg PUBLIC "-//W3C//DTD SVG 20010904//EN"
 "http://www.w3.org/TR/2001/REC-SVG-20010904/DTD/svg10.dtd">
<svg version="1.0" xmlns="http://www.w3.org/2000/svg"
 width="737.000000pt" height="333.000000pt" viewBox="0 0 737.000000 333.000000"
 preserveAspectRatio="xMidYMid meet">

<g transform="translate(0.000000,333.000000) scale(0.100000,-0.100000)"
fill="#000000" stroke="none">
<path d="M4631 2813 c-36 -23 -88 -50 -115 -59 -87 -28 -122 -51 -188 -121
-34 -37 -110 -116 -168 -176 l-105 -108 -11 44 c-19 75 -57 138 -116 196 -32
31 -58 61 -58 68 0 20 -28 15 -35 -6 -3 -11 -20 -26 -38 -34 -62 -30 -116
-103 -150 -206 -14 -39 -27 -74 -29 -76 -3 -3 -33 25 -68 62 -35 38 -120 125
-188 195 -121 124 -127 128 -222 168 -54 23 -113 52 -131 66 -18 13 -34 24
-35 24 -3 0 86 -251 97 -273 15 -28 80 -106 196 -233 l92 -102 -72 -17 c-40
-9 -98 -19 -129 -22 -32 -3 -58 -9 -58 -13 0 -3 12 -17 26 -31 14 -13 39 -48
56 -79 43 -76 134 -208 172 -248 44 -48 81 -65 156 -71 l64 -6 -229 -243
c-127 -134 -243 -265 -258 -291 -15 -27 -34 -81 -43 -121 -8 -39 -28 -98 -44
-131 l-30 -59 52 40 c32 24 80 48 121 61 80 24 148 80 344 282 l122 127 33
-68 c31 -62 36 -68 73 -75 22 -4 44 -12 49 -17 17 -17 44 -11 60 12 9 12 17
20 18 17 2 -2 8 -13 15 -24 6 -11 17 -18 25 -16 111 34 124 41 146 87 12 24
22 52 22 62 0 10 72 -55 178 -160 97 -97 191 -183 207 -191 17 -8 60 -24 96
-36 37 -12 84 -37 107 -56 22 -19 43 -35 46 -35 3 0 -3 20 -14 45 -11 25 -25
76 -31 113 -6 37 -17 82 -25 100 -7 17 -125 148 -263 290 -137 141 -259 269
-270 283 l-20 26 49 -10 c27 -5 69 -6 94 -3 55 9 149 69 194 125 35 43 82 136
82 161 0 20 35 77 69 114 24 26 24 28 5 22 -21 -6 -171 22 -223 41 -23 9 -21
13 71 114 196 216 227 262 248 364 6 33 21 80 31 104 11 24 18 45 17 46 -2 0
-32 -18 -67 -42z"/>
<path d="M1240 2001 l0 -581 100 0 100 0 2 321 3 320 310 -366 310 -366 3 577
c1 317 1 578 0 580 -2 1 -46 3 -98 5 l-95 4 -5 -322 -5 -323 -305 361 c-167
198 -308 363 -312 365 -5 3 -8 -256 -8 -575z"/>
<path d="M5063 2500 c-381 -69 -590 -485 -421 -836 44 -93 167 -217 259 -261
230 -113 500 -71 678 106 63 61 119 145 136 199 6 22 5 22 -94 22 -57 0 -101
-4 -101 -9 0 -6 -25 -37 -56 -70 -38 -41 -77 -71 -122 -93 -63 -31 -73 -33
-177 -33 -99 0 -116 3 -168 27 -80 38 -160 117 -200 197 -30 62 -32 72 -32
176 0 103 2 114 32 178 59 123 172 207 305 226 129 18 253 -20 344 -104 l48
-45 103 0 103 0 -31 51 c-99 159 -280 265 -472 274 -45 2 -106 0 -134 -5z"/>
<path d="M2310 2390 l0 -100 318 2 317 3 3 98 3 97 -321 0 -320 0 0 -100z"/>
<path d="M2310 1930 l0 -100 318 2 317 3 0 95 0 95 -317 3 -318 2 0 -100z"/>
<path d="M5180 1955 l0 -75 325 -2 c179 -1 346 -2 373 -3 l47 0 3 78 3 77
-376 0 -375 0 0 -75z"/>
<path d="M2310 1485 l0 -95 320 0 320 0 0 95 0 95 -320 0 -320 0 0 -95z"/>
<path d="M1240 680 l0 -50 90 0 c53 0 90 4 90 10 0 6 -33 10 -80 10 l-80 0 0
40 c0 22 -4 40 -10 40 -5 0 -10 -22 -10 -50z"/>
<path d="M1530 680 c0 -27 5 -50 10 -50 6 0 10 23 10 50 0 28 -4 50 -10 50 -5
0 -10 -22 -10 -50z"/>
<path d="M1660 680 l0 -50 90 0 90 0 0 30 c0 17 -4 30 -10 30 -5 0 -10 9 -10
20 0 18 -7 20 -80 20 l-80 0 0 -50z m140 20 c0 -6 -27 -10 -60 -10 -33 0 -60
4 -60 10 0 6 27 10 60 10 33 0 60 -4 60 -10z m20 -40 c0 -6 -30 -10 -70 -10
-40 0 -70 4 -70 10 0 6 30 10 70 10 40 0 70 -4 70 -10z"/>
<path d="M1950 720 c0 -6 37 -10 90 -10 53 0 90 4 90 10 0 6 -37 10 -90 10
-53 0 -90 -4 -90 -10z"/>
<path d="M2240 680 c0 -27 5 -50 10 -50 6 0 10 9 10 20 0 18 7 20 64 20 56 0
66 -3 71 -20 3 -11 11 -20 16 -20 6 0 7 9 4 20 -4 11 -2 20 4 20 6 0 11 14 11
30 l0 30 -95 0 -95 0 0 -50z m165 20 c-3 -5 -35 -10 -70 -10 -35 0 -67 5 -70
10 -4 6 22 10 70 10 48 0 74 -4 70 -10z"/>
<path d="M2578 683 c-21 -28 -32 -50 -26 -52 6 -2 18 5 25 15 8 11 23 30 34
44 l19 25 21 -25 c12 -14 27 -33 34 -44 8 -10 19 -16 25 -14 16 5 -59 98 -79
98 -9 0 -33 -21 -53 -47z"/>
<path d="M2930 720 c0 -5 20 -10 45 -10 l45 0 0 -40 c0 -22 5 -40 10 -40 6 0
10 18 10 40 l0 40 40 0 c22 0 40 5 40 10 0 6 -38 10 -95 10 -57 0 -95 -4 -95
-10z"/>
<path d="M3220 680 l0 -50 95 0 95 0 0 50 c0 58 -17 68 -22 13 l-3 -38 -70 0
-70 0 -3 38 c-5 55 -22 45 -22 -13z"/>
<path d="M3620 680 c0 -27 5 -50 10 -50 6 0 10 9 10 20 0 18 7 20 80 20 l80 0
0 30 0 30 -90 0 -90 0 0 -50z m160 20 c0 -6 -30 -10 -70 -10 -40 0 -70 4 -70
10 0 6 30 10 70 10 40 0 70 -4 70 -10z"/>
<path d="M3910 680 l0 -50 90 0 90 0 0 50 0 50 -90 0 -90 0 0 -50z m155 0 c0
-24 -3 -25 -63 -28 -65 -3 -82 8 -68 43 4 13 19 15 68 13 60 -3 63 -4 63 -28z"/>
<path d="M4200 720 c0 -5 18 -10 40 -10 l40 0 0 -40 c0 -22 5 -40 10 -40 6 0
10 18 10 40 l0 40 40 0 c22 0 40 5 40 10 0 6 -37 10 -90 10 -53 0 -90 -4 -90
-10z"/>
<path d="M4490 720 c0 -6 37 -10 90 -10 53 0 90 4 90 10 0 6 -37 10 -90 10
-53 0 -90 -4 -90 -10z"/>
<path d="M4780 680 c0 -27 5 -50 10 -50 6 0 10 16 10 35 0 19 5 35 11 35 6 0
39 -16 73 -35 35 -19 68 -35 74 -35 8 0 12 19 12 50 0 28 -4 50 -10 50 -5 0
-10 -16 -10 -35 0 -19 -3 -35 -7 -35 -3 0 -35 16 -70 35 -86 47 -93 46 -93
-15z"/>
<path d="M5080 680 l0 -50 90 0 c53 0 90 4 90 10 0 6 -33 10 -80 10 l-80 0 0
30 0 30 80 0 c47 0 80 4 80 10 0 6 -37 10 -90 10 l-90 0 0 -50z"/>
<path d="M5370 680 c0 -27 5 -50 10 -50 6 0 10 23 10 50 0 28 -4 50 -10 50 -5
0 -10 -22 -10 -50z"/>
<path d="M5537 680 c-47 -61 -26 -69 23 -9 l33 42 38 -44 c20 -24 41 -41 45
-37 10 11 -65 98 -84 98 -9 -1 -34 -23 -55 -50z"/>
<path d="M5800 680 l0 -50 90 0 c53 0 90 4 90 10 0 6 -33 10 -80 10 l-80 0 0
40 c0 22 -4 40 -10 40 -5 0 -10 -22 -10 -50z"/>
<path d="M1950 660 l0 -30 90 0 c53 0 90 4 90 10 0 6 -33 10 -80 10 -47 0 -80
4 -80 10 0 6 33 10 80 10 47 0 80 4 80 10 0 6 -37 10 -90 10 l-90 0 0 -30z"/>
<path d="M4490 660 l0 -30 90 0 c53 0 90 4 90 10 0 6 -33 10 -80 10 -47 0 -80
4 -80 10 0 6 33 10 80 10 47 0 80 4 80 10 0 6 -37 10 -90 10 l-90 0 0 -30z"/>
</g>
</svg>
